<svg width="14" height="19" viewBox="0 0 14 19" fill="none" xmlns="http://www.w3.org/2000/svg">
<path d="M0.882718 18.8035C1.43043 19.0983 2.06967 19.0656 2.55668 18.6726L6.42196 15.5932C6.75675 15.3311 7.24375 15.3311 7.57853 15.5932L11.4436 18.6723C11.7175 18.9017 12.0522 19 12.387 19C12.6305 19 12.9044 18.9344 13.1175 18.8035C13.6652 18.5087 14 17.9189 14 17.2638V1.73621C14 0.786325 13.2695 0 12.387 0H1.61304C0.730544 0 0 0.786267 0 1.73621V17.2638C0 17.9189 0.334794 18.5085 0.882718 18.8035ZM0.608642 1.73622C0.608642 1.14668 1.06508 0.655179 1.61299 0.655179H12.3869C12.9346 0.655179 13.3912 1.14647 13.3912 1.73622V17.2638C13.3912 17.6898 13.1781 18.0172 12.8435 18.2137C12.5087 18.4102 12.113 18.3776 11.8088 18.1481L7.94353 15.069C7.39582 14.6431 6.63495 14.6431 6.05663 15.069L2.19136 18.1484C1.88692 18.3778 1.49141 18.4105 1.15663 18.2139C0.821837 18.0172 0.608696 17.6569 0.608696 17.2638L0.608642 1.73622Z" fill="#EAE7F4"/>
</svg>
